<svg xmlns="http://www.w3.org/2000/svg" viewBox="0 0 512 512">
  <defs>
    <linearGradient id="bg" x1="0" x2="1" y1="0" y2="1">
      <stop offset="0%" stop-color="#24533a" />
      <stop offset="100%" stop-color="#163525" />
    </linearGradient>
    <linearGradient id="sun" x1="0" x2="1" y1="0" y2="1">
      <stop offset="0%" stop-color="#f2d58a" />
      <stop offset="100%" stop-color="#d96b2b" />
    </linearGradient>
  </defs>
  <rect width="512" height="512" rx="112" fill="url(#bg)" />
  <circle cx="390" cy="122" r="48" fill="url(#sun)" />
  <path d="M70 360c72-44 133-59 200-48 59 9 108 37 172 32v88H70z" fill="#7aa05f" />
  <path d="M104 380c51-31 116-47 172-38 53 8 99 33 132 30v76H104z" fill="#9bc271" />
  <rect x="244" y="118" width="12" height="194" rx="6" fill="#f7f0db" />
  <path d="M256 124l112 38-112 40z" fill="#fff8ef" />
  <circle cx="256" cy="328" r="42" fill="#fffdf7" />
  <path d="M246 286h20l-5 36h-10z" fill="#d96b2b" opacity=".22" />
</svg>
